<?xml version="1.0" encoding="UTF-8" standalone="no"?>
<svg width="200px" height="200px" viewBox="0 0 200 200" version="1.1" xmlns="http://www.w3.org/2000/svg" xmlns:xlink="http://www.w3.org/1999/xlink" xmlns:sketch="http://www.bohemiancoding.com/sketch/ns">
    <!-- Generator: Sketch 3.1.1 (8761) - http://www.bohemiancoding.com/sketch -->
    <title>Artboard 1</title>
    <desc>Created with Sketch.</desc>
    <defs></defs>
    <g id="Page-1" stroke="none" stroke-width="1" fill="none" fill-rule="evenodd" sketch:type="MSPage">
        <g id="Artboard-1" sketch:type="MSArtboardGroup" stroke="#FFFFFF">
            <path d="M100.5,116.098591 L131,172.098591 C131,172.098591 111.650563,180 100.5,180 C91.3172298,180 70,172.098591 70,172.098591 L100.5,116.098591 Z" id="Triangle-1" stroke-width="4" sketch:type="MSShapeGroup" transform="translate(100.500000, 148.049295) rotate(-180.000000) translate(-100.500000, -148.049295) "></path>
            <g id="right" sketch:type="MSLayerGroup" transform="translate(110.000000, 13.000000)" stroke-linecap="square">
                <path d="M20.5,110.5 L61.5,59.5" id="Line" stroke-width="4" sketch:type="MSShapeGroup"></path>
                <path d="M62.5,58.5 L73.5,17.5" id="Line" stroke-width="3" sketch:type="MSShapeGroup"></path>
                <path d="M73.5,16.5 L60.5,0.5" id="Line" stroke-width="2" sketch:type="MSShapeGroup"></path>
                <path d="M55.5,66.5 L36.5,46.5" id="Line" stroke-width="3" sketch:type="MSShapeGroup"></path>
                <path d="M35.5,45.5 L29.5,26.5" id="Line" stroke-width="2" sketch:type="MSShapeGroup"></path>
                <path d="M40.5,83.5 L15.5,67.5" id="Line" stroke-width="3" sketch:type="MSShapeGroup"></path>
                <path d="M14.5,66.5 L9.5,39.5" id="Line" stroke-width="2" sketch:type="MSShapeGroup"></path>
                <path d="M21.5,107.5 L4.5,88.5" id="Line" stroke-width="3" sketch:type="MSShapeGroup"></path>
                <path d="M3.5,87.5 L0.5,71.5" id="Line" stroke-width="2" sketch:type="MSShapeGroup"></path>
            </g>
            <g id="right-3" sketch:type="MSLayerGroup" transform="translate(53.000000, 68.500000) scale(-1, 1) translate(-53.000000, -68.500000) translate(16.000000, 13.000000)" stroke-linecap="square">
                <path d="M20.5,110.5 L61.5,59.5" id="Line" stroke-width="4" sketch:type="MSShapeGroup"></path>
                <path d="M62.5,58.5 L73.5,17.5" id="Line" stroke-width="3" sketch:type="MSShapeGroup"></path>
                <path d="M73.5,16.5 L60.5,0.5" id="Line" stroke-width="2" sketch:type="MSShapeGroup"></path>
                <path d="M55.5,66.5 L36.5,46.5" id="Line" stroke-width="3" sketch:type="MSShapeGroup"></path>
                <path d="M35.5,45.5 L29.5,26.5" id="Line" stroke-width="2" sketch:type="MSShapeGroup"></path>
                <path d="M40.5,83.5 L15.5,67.5" id="Line" stroke-width="3" sketch:type="MSShapeGroup"></path>
                <path d="M14.5,66.5 L9.5,39.5" id="Line" stroke-width="2" sketch:type="MSShapeGroup"></path>
                <path d="M21.5,107.5 L4.5,88.5" id="Line" stroke-width="3" sketch:type="MSShapeGroup"></path>
                <path d="M3.5,87.5 L0.5,71.5" id="Line" stroke-width="2" sketch:type="MSShapeGroup"></path>
            </g>
        </g>
    </g>
</svg>